<svg xmlns="http://www.w3.org/2000/svg" width="32" height="32" viewBox="0 0 32 32">
  <path fill="#FFF" d="M31.1111111,3.55555556 C30.6200889,3.55555556 30.2222222,3.95342222 30.2222222,4.44444444 L30.2222222,7.11111111 L10.5770667,7.11111111 C10.1642667,5.0848 8.36871111,3.55555556 6.22222222,3.55555556 L1.77777778,3.55555556 L1.77777778,0.888888889 C1.77777778,0.397866667 1.37991111,0 0.888888889,0 C0.397866667,0 0,0.397866667 0,0.888888889 L0,4.44444444 L0,8 L0,18.6666667 L0,22.2222222 L0,31.1111111 C0,31.6021333 0.397866667,32 0.888888889,32 C1.37991111,32 1.77777778,31.6021333 1.77777778,31.1111111 L1.77777778,26.6666667 L30.2222222,26.6666667 L30.2222222,31.1111111 C30.2222222,31.6021333 30.6200889,32 31.1111111,32 C31.6021333,32 32,31.6021333 32,31.1111111 L32,4.44444444 C32,3.95342222 31.6021333,3.55555556 31.1111111,3.55555556 Z M23.1111111,8.88888889 L26.6666667,8.88888889 L26.6666667,10.6666667 L23.1111111,10.6666667 L23.1111111,8.88888889 Z M23.1111111,12.4444444 L26.6666667,12.4444444 L26.6666667,14.2222222 L23.1111111,14.2222222 L23.1111111,12.4444444 Z M23.1111111,16 L26.6666667,16 L26.6666667,17.7777778 L23.1111111,17.7777778 L23.1111111,16 Z M23.1111111,19.5555556 L26.6666667,19.5555556 L26.6666667,21.3333333 L23.1111111,21.3333333 L23.1111111,19.5555556 Z M1.77777778,5.33333333 L6.22222222,5.33333333 C7.38097778,5.33333333 8.36977778,6.07644444 8.73671111,7.11111111 L1.77777778,7.11111111 L1.77777778,5.33333333 Z M1.77777778,8.88888889 L9.77777778,8.88888889 L21.3333333,8.88888889 L21.3333333,10.6666667 L1.77777778,10.6666667 L1.77777778,8.88888889 Z M1.77777778,12.4444444 L21.3333333,12.4444444 L21.3333333,21.3333333 L10.5770667,21.3333333 C10.1642667,19.3070222 8.36871111,17.7777778 6.22222222,17.7777778 L1.77777778,17.7777778 L1.77777778,12.4444444 Z M1.77777778,19.5555556 L6.22222222,19.5555556 C7.38097778,19.5555556 8.36977778,20.2986667 8.73671111,21.3333333 L1.77777778,21.3333333 L1.77777778,19.5555556 Z M30.2222222,24.8888889 L1.77777778,24.8888889 L1.77777778,23.1111111 L9.77777778,23.1111111 L30.2222222,23.1111111 L30.2222222,24.8888889 Z M30.2222222,21.3333333 L28.4444444,21.3333333 L28.4444444,12.4444444 L30.2222222,12.4444444 L30.2222222,21.3333333 Z M30.2222222,10.6666667 L28.4444444,10.6666667 L28.4444444,8.88888889 L30.2222222,8.88888889 L30.2222222,10.6666667 Z"/>
</svg>
