<svg xmlns="http://www.w3.org/2000/svg" width="32" height="32" viewBox="0 0 32 32">
  <g fill="#FFF">
    <path d="M2.82352941,0 C1.26644706,0 0,1.26644706 0,2.82352941 L0,29.1764706 C0,29.6963765 0.421270588,30.1176471 0.941176471,30.1176471 L31.0588235,30.1176471 C31.5787294,30.1176471 32,29.6963765 32,29.1764706 L32,2.82352941 C32,1.26644706 30.7335529,0 29.1764706,0 L2.82352941,0 Z M30.1176471,28.2352941 L1.88235294,28.2352941 L1.88235294,7.52941176 L30.1176471,7.52941176 L30.1176471,28.2352941 Z M30.1176471,2.82352941 L30.1176471,5.64705882 L1.88235294,5.64705882 L1.88235294,2.82352941 C1.88235294,2.30475294 2.30437647,1.88235294 2.82352941,1.88235294 L29.1764706,1.88235294 C29.6956235,1.88235294 30.1176471,2.30475294 30.1176471,2.82352941 Z"/>
    <path d="M6.86381176 15.7244235C7.04790588 15.9081412 7.28847059 16 7.52941176 16 7.77035294 16 8.01091765 15.9081412 8.19501176 15.7244235L11.9597176 11.9597176C12.3275294 11.5922824 12.3275294 10.9963294 11.9597176 10.6288941 11.5919059 10.2610824 10.9963294 10.2610824 10.6288941 10.6288941L7.52941176 13.7276235 6.31265882 12.5108706C5.94484706 12.1430588 5.34927059 12.1430588 4.98183529 12.5108706 4.61402353 12.8783059 4.61402353 13.4742588 4.98183529 13.8416941L6.86381176 15.7244235zM6.86381176 25.1361882C7.04790588 25.3199059 7.28847059 25.4117647 7.52941176 25.4117647 7.77035294 25.4117647 8.01091765 25.3199059 8.19501176 25.1361882L11.9597176 21.3714824C12.3275294 21.0040471 12.3275294 20.4080941 11.9597176 20.0406588 11.5919059 19.6728471 10.9963294 19.6728471 10.6288941 20.0406588L7.52941176 23.1393882 6.31265882 21.9226353C5.94484706 21.5548235 5.34927059 21.5548235 4.98183529 21.9226353 4.61402353 22.2900706 4.61402353 22.8860235 4.98183529 23.2534588L6.86381176 25.1361882zM15.0588235 16L21.6470588 16C22.1669647 16 22.5882353 15.5787294 22.5882353 15.0588235 22.5882353 14.5389176 22.1669647 14.1176471 21.6470588 14.1176471L15.0588235 14.1176471C14.5389176 14.1176471 14.1176471 14.5389176 14.1176471 15.0588235 14.1176471 15.5787294 14.5389176 16 15.0588235 16zM15.0588235 21.6470588L25.4117647 21.6470588C25.9316706 21.6470588 26.3529412 21.2257882 26.3529412 20.7058824 26.3529412 20.1859765 25.9316706 19.7647059 25.4117647 19.7647059L15.0588235 19.7647059C14.5389176 19.7647059 14.1176471 20.1859765 14.1176471 20.7058824 14.1176471 21.2257882 14.5389176 21.6470588 15.0588235 21.6470588zM15.0588235 12.2352941L25.4117647 12.2352941C25.9316706 12.2352941 26.3529412 11.8140235 26.3529412 11.2941176 26.3529412 10.7742118 25.9316706 10.3529412 25.4117647 10.3529412L15.0588235 10.3529412C14.5389176 10.3529412 14.1176471 10.7742118 14.1176471 11.2941176 14.1176471 11.8140235 14.5389176 12.2352941 15.0588235 12.2352941zM15.0588235 25.4117647L21.6470588 25.4117647C22.1669647 25.4117647 22.5882353 24.9904941 22.5882353 24.4705882 22.5882353 23.9506824 22.1669647 23.5294118 21.6470588 23.5294118L15.0588235 23.5294118C14.5389176 23.5294118 14.1176471 23.9506824 14.1176471 24.4705882 14.1176471 24.9904941 14.5389176 25.4117647 15.0588235 25.4117647z"/>
  </g>
</svg>
