<svg xmlns="http://www.w3.org/2000/svg" width="32" height="32" viewBox="0 0 32 32">
  <g fill="#FBFBFA" transform="translate(0 4)">
    <path d="M31.0222222 21.5593063L27.5111111 21.5593063 27.5111111 14.8481952C27.5111111 14.3593063 27.1111111 13.9593063 26.6222222 13.9593063 26.1333333 13.9593063 25.7333333 14.3593063 25.7333333 14.8481952L25.7333333 21.5593063 22.1777778 21.5593063 22.1777778 12.625973C22.1777778 12.1370841 21.7777778 11.7370841 21.2888889 11.7370841 20.8 11.7370841 20.4 12.1370841 20.4 12.625973L20.4 21.5593063 16.8444444 21.5593063 16.8444444 15.7370841C16.8444444 15.2481952 16.4444444 14.8481952 15.9555556 14.8481952 15.4666667 14.8481952 15.0666667 15.2481952 15.0666667 15.7370841L15.0666667 21.5593063 11.5111111 21.5593063 11.5111111 11.2926396C11.5111111 10.8037507 11.1111111 10.4037507 10.6222222 10.4037507 10.1333333 10.4037507 9.73333333 10.8037507 9.73333333 11.2926396L9.73333333 21.5593063 6.17777778 21.5593063 6.17777778 16.1815285C6.17777778 15.6926396 5.77777778 15.2926396 5.28888889 15.2926396 4.8 15.2926396 4.4 15.6926396 4.4 16.1815285L4.4 21.5593063.888888889 21.5593063C.4 21.5593063 0 21.9593063 0 22.4481952 0 22.9370841.4 23.3370841.888888889 23.3370841L31.0222222 23.3370841C31.5111111 23.3370841 31.9111111 22.9370841 31.9111111 22.4481952 31.9111111 21.9593063 31.5111111 21.5593063 31.0222222 21.5593063zM4.31111111 10.7593063C4.53333333 10.7593063 4.75555556 10.6704174 4.93333333 10.4926396L10.6666667 4.98152853 16.6222222 9.69263964C16.9333333 9.9593063 17.4222222 9.9593063 17.7333333 9.69263964L26.0888889 2.98152853 25.7777778 6.98152853C25.7333333 7.47041741 26.0888889 7.91486186 26.5777778 7.91486186 26.6222222 7.91486186 26.6222222 7.91486186 26.6666667 7.91486186 27.1111111 7.91486186 27.5111111 7.5593063 27.5555556 7.11486186L28 1.38152853C28.0444444.892639637 27.6888889.448195192 27.2.448195192L21.4666667.00375074775C20.9777778-.0406936967 20.5333333.314861859 20.5333333.803750748 20.4888889 1.29263964 20.8444444 1.73708408 21.3333333 1.73708408L24.4888889 1.9593063 17.1111111 7.82597297 11.1555556 3.11486186C10.8 2.84819519 10.3111111 2.84819519 10 3.1593063L3.68888889 9.24819519C3.33333333 9.60375075 3.33333333 10.1370841 3.64444444 10.4926396 3.82222222 10.6704174 4.08888889 10.7593063 4.31111111 10.7593063z"/>
  </g>
</svg>
