<svg xmlns="http://www.w3.org/2000/svg" width="32" height="32" viewBox="0 0 32 32">
  <g fill="#FFF" transform="translate(0 1)">
    <path d="M16.9241446 8.32877108L16.4140723 10.3686747C16.2853012 10.8853012 16.598747 11.4084819 17.1153735 11.5376386 17.1940241 11.5573012 17.2722892 11.5665542 17.3497831 11.5665542 17.7815904 11.5665542 18.1748434 11.2739277 18.2843373 10.8359518L19.2481928 6.98053012C19.355759 6.5506506 19.1406265 6.08298795 18.7439036 5.88443373L14.8884819 3.95672289C14.4119518 3.71845783 13.8336386 3.91161446 13.5953735 4.38775904 13.357494 4.86390361 13.5506506 5.44260241 14.0264096 5.68086747L15.958747 6.6466506C8.68009639 9.86284337 4.24327711 15.614747 3.15566265 23.1983614 1.36327711 23.5295422 0 25.1013976 0 26.9878554 0 29.1137349 1.72954217 30.8432771 3.85542169 30.8432771 5.9813012 30.8432771 7.71084337 29.1137349 7.71084337 26.9878554 7.71084337 25.2945542 6.61166265 23.8557108 5.0906988 23.3390843 6.13937349 16.4494458 10.235759 11.230747 16.9241446 8.32877108zM5.78313253 26.9878554C5.78313253 28.0507952 4.91836145 28.9155663 3.85542169 28.9155663 2.79248193 28.9155663 1.92771084 28.0507952 1.92771084 26.9878554 1.92771084 25.9249157 2.79248193 25.0601446 3.85542169 25.0601446 4.91836145 25.0601446 5.78313253 25.9249157 5.78313253 26.9878554zM18.9948916 23.4146506C18.6182169 23.0379759 18.0082892 23.0379759 17.632 23.4146506L15.4216867 25.6249639 13.211759 23.4150361C12.8350843 23.0383614 12.2251566 23.0383614 11.8488675 23.4150361 11.4725783 23.7917108 11.4721928 24.4016386 11.8488675 24.7779277L14.0587952 26.9878554 11.8488675 29.1977831C11.4721928 29.5744578 11.4721928 30.1843855 11.8488675 30.5606747 12.037012 30.7492048 12.2833735 30.8432771 12.5301205 30.8432771 12.7768675 30.8432771 13.0232289 30.7492048 13.211759 30.5610602L15.4216867 28.350747 17.6316145 30.5606747C17.8201446 30.7492048 18.066506 30.8432771 18.313253 30.8432771 18.56 30.8432771 18.8063614 30.7492048 18.9948916 30.5610602 19.3715663 30.1843855 19.3715663 29.5744578 18.9948916 29.1981687L16.7845783 26.9878554 18.994506 24.7779277C19.3711807 24.401253 19.3711807 23.7913253 18.9948916 23.4146506zM30.5611566 11.8483855C30.1844819 11.4717108 29.5745542 11.4717108 29.1982651 11.8483855L26.9879518 14.0586988 24.7780241 11.8487711C24.4013494 11.4720964 23.7914217 11.4720964 23.4151325 11.8487711 23.0388434 12.2254458 23.0384578 12.8353735 23.4151325 13.2116627L25.6250602 15.4215904 23.4151325 17.6315181C23.0384578 18.0081928 23.0384578 18.6181205 23.4151325 18.9944096 23.6032771 19.1829398 23.8496386 19.277012 24.0963855 19.277012 24.3431325 19.277012 24.589494 19.1829398 24.7780241 18.9947952L26.9879518 16.7844819 29.1978795 18.9944096C29.3864096 19.1829398 29.6327711 19.277012 29.8795181 19.277012 30.1262651 19.277012 30.3726265 19.1829398 30.5611566 18.9947952 30.9378313 18.6181205 30.9378313 18.0081928 30.5611566 17.6319036L28.3508434 15.4215904 30.5607711 13.2116627C30.9374458 12.834988 30.9374458 12.2250602 30.5611566 11.8483855zM.282216867 7.42853012C.470746988 7.6166747.717108434 7.71074699.963855422 7.71074699 1.21060241 7.71074699 1.45696386 7.6166747 1.64549398 7.42853012L3.85542169 5.21821687 6.0653494 7.42814458C6.25387952 7.6166747 6.50024096 7.71074699 6.74698795 7.71074699 6.99373494 7.71074699 7.24009639 7.6166747 7.42862651 7.42853012 7.8053012 7.05185542 7.8053012 6.44192771 7.42862651 6.06563855L5.21831325 3.8553253 7.42824096 1.64539759C7.80491566 1.26872289 7.80491566.658795181 7.42824096.282506024 7.05156627-.0937831325 6.44163855-.0941686747 6.0653494.282506024L3.85542169 2.49243373 1.64549398.282506024C1.26881928-.0941686747.658891566-.0941686747.28260241.282506024-.093686747.659180723-.0940722892 1.26910843.28260241 1.64539759L2.49253012 3.8553253.28260241 6.06525301C-.0940722892 6.44192771-.0940722892 7.05185542.282216867 7.42853012zM30.1617349.282120482L29.0259277 1.41792771 26.0240964 4.42014458 24.2228434 2.61889157 23.8137831 2.20983133C23.4371084 1.83315663 22.8271807 1.83315663 22.4508916 2.20983133 22.0746024 2.58650602 22.0742169 3.19643373 22.4508916 3.57272289L25.3424578 6.46428916C25.530988 6.65281928 25.7773494 6.74689157 26.0240964 6.74689157 26.2708434 6.74689157 26.5172048 6.65281928 26.7057349 6.4646747L31.525012 1.64539759C31.9016867 1.26872289 31.9016867.658795181 31.525012.282506024 31.1483373-.0937831325 30.5384096-.0941686747 30.1617349.282120482z"/>
  </g>
</svg>
