<svg xmlns="http://www.w3.org/2000/svg" width="32" height="32" viewBox="0 0 32 32">
  <g fill="#FFF">
    <path d="M19.5555556 3.55555556C19.5555556 1.59502222 17.9605333 0 16 0 14.0394667 0 12.4444444 1.59502222 12.4444444 3.55555556 12.4444444 5.51608889 14.0394667 7.11111111 16 7.11111111 17.9605333 7.11111111 19.5555556 5.51608889 19.5555556 3.55555556zM14.2222222 3.55555556C14.2222222 2.57528889 15.0197333 1.77777778 16 1.77777778 16.9802667 1.77777778 17.7777778 2.57528889 17.7777778 3.55555556 17.7777778 4.53582222 16.9802667 5.33333333 16 5.33333333 15.0197333 5.33333333 14.2222222 4.53582222 14.2222222 3.55555556zM26.6666667 10.6666667C28.6272 10.6666667 30.2222222 9.07164444 30.2222222 7.11111111 30.2222222 5.15057778 28.6272 3.55555556 26.6666667 3.55555556 24.7061333 3.55555556 23.1111111 5.15057778 23.1111111 7.11111111 23.1111111 9.07164444 24.7061333 10.6666667 26.6666667 10.6666667zM26.6666667 5.33333333C27.6469333 5.33333333 28.4444444 6.13084444 28.4444444 7.11111111 28.4444444 8.09137778 27.6469333 8.88888889 26.6666667 8.88888889 25.6864 8.88888889 24.8888889 8.09137778 24.8888889 7.11111111 24.8888889 6.13084444 25.6864 5.33333333 26.6666667 5.33333333zM5.33333333 10.6666667C7.29386667 10.6666667 8.88888889 9.07164444 8.88888889 7.11111111 8.88888889 5.15057778 7.29386667 3.55555556 5.33333333 3.55555556 3.3728 3.55555556 1.77777778 5.15057778 1.77777778 7.11111111 1.77777778 9.07164444 3.3728 10.6666667 5.33333333 10.6666667zM5.33333333 5.33333333C6.3136 5.33333333 7.11111111 6.13084444 7.11111111 7.11111111 7.11111111 8.09137778 6.3136 8.88888889 5.33333333 8.88888889 4.35306667 8.88888889 3.55555556 8.09137778 3.55555556 7.11111111 3.55555556 6.13084444 4.35306667 5.33333333 5.33333333 5.33333333zM29.3333333 12.4444444L24 12.4444444C23.6878222 12.4444444 23.3895111 12.5009778 23.1111111 12.6001778L23.1111111 11.5555556C23.1111111 10.0849778 21.9150222 8.88888889 20.4444444 8.88888889L11.5555556 8.88888889C10.0849778 8.88888889 8.88888889 10.0849778 8.88888889 11.5555556L8.88888889 12.6001778C8.61048889 12.5009778 8.31217778 12.4444444 8 12.4444444L2.66666667 12.4444444C1.19608889 12.4444444 0 13.6405333 0 15.1111111L0 21.3333333C0 21.8243556.397866667 22.2222222.888888889 22.2222222L1.77777778 22.2222222 1.77777778 31.1111111C1.77777778 31.6021333 2.17564444 32 2.66666667 32L8 32C8.49102222 32 8.88888889 31.6021333 8.88888889 31.1111111L8.88888889 22.2222222 10.6666667 22.2222222 10.6666667 31.1111111C10.6666667 31.6021333 11.0645333 32 11.5555556 32L20.4444444 32C20.9354667 32 21.3333333 31.6021333 21.3333333 31.1111111L21.3333333 22.2222222 23.1111111 22.2222222 23.1111111 31.1111111C23.1111111 31.6021333 23.5089778 32 24 32L29.3333333 32C29.8243556 32 30.2222222 31.6021333 30.2222222 31.1111111L30.2222222 22.2222222 31.1111111 22.2222222C31.6021333 22.2222222 32 21.8243556 32 21.3333333L32 15.1111111C32 13.6405333 30.8039111 12.4444444 29.3333333 12.4444444zM8.88888889 20.4444444L8 20.4444444C7.50897778 20.4444444 7.11111111 20.8423111 7.11111111 21.3333333L7.11111111 30.2222222 3.55555556 30.2222222 3.55555556 21.3333333C3.55555556 20.8423111 3.15768889 20.4444444 2.66666667 20.4444444L1.77777778 20.4444444 1.77777778 15.1111111C1.77777778 14.6211556 2.17671111 14.2222222 2.66666667 14.2222222L8 14.2222222C8.48995556 14.2222222 8.88888889 14.6211556 8.88888889 15.1111111L8.88888889 20.4444444zM21.3333333 15.1111111L21.3333333 20.4444444 20.4444444 20.4444444C19.9534222 20.4444444 19.5555556 20.8423111 19.5555556 21.3333333L19.5555556 30.2222222 16.8888889 30.2222222 16.8888889 24C16.8888889 23.5089778 16.4910222 23.1111111 16 23.1111111 15.5089778 23.1111111 15.1111111 23.5089778 15.1111111 24L15.1111111 30.2222222 12.4444444 30.2222222 12.4444444 21.3333333C12.4444444 20.8423111 12.0465778 20.4444444 11.5555556 20.4444444L10.6666667 20.4444444 10.6666667 15.1111111 10.6666667 11.5555556C10.6666667 11.0656 11.0656 10.6666667 11.5555556 10.6666667L20.4444444 10.6666667C20.9344 10.6666667 21.3333333 11.0656 21.3333333 11.5555556L21.3333333 15.1111111zM30.2222222 20.4444444L29.3333333 20.4444444C28.8423111 20.4444444 28.4444444 20.8423111 28.4444444 21.3333333L28.4444444 30.2222222 24.8888889 30.2222222 24.8888889 21.3333333C24.8888889 20.8423111 24.4910222 20.4444444 24 20.4444444L23.1111111 20.4444444 23.1111111 15.1111111C23.1111111 14.6211556 23.5100444 14.2222222 24 14.2222222L29.3333333 14.2222222C29.8232889 14.2222222 30.2222222 14.6211556 30.2222222 15.1111111L30.2222222 20.4444444z"/>
  </g>
</svg>
