<svg xmlns="http://www.w3.org/2000/svg" width="32" height="32" viewBox="0 0 32 32">
  <g fill="#FFF" transform="translate(0 1)">
    <path d="M31.1176471 18.4L28.4705882 18.4 28.4705882 13.9C28.4705882 13.40284 28.0756471 13 27.5882353 13L17 13C16.5125882 13 16.1176471 13.40284 16.1176471 13.9L16.1176471 18.4 9.94117647 18.4C9.45376471 18.4 9.05882353 18.80284 9.05882353 19.3L9.05882353 23.8 2.88235294 23.8C2.39494118 23.8 2 24.20284 2 24.7L2 30.1C2 30.59716 2.39494118 31 2.88235294 31L13.4705882 31 24.0588235 31C24.5462353 31 24.9411765 30.59716 24.9411765 30.1L24.9411765 25.6 31.1176471 25.6C31.6050588 25.6 32 25.19716 32 24.7L32 19.3C32 18.80284 31.6050588 18.4 31.1176471 18.4zM17.8823529 14.8L26.7058824 14.8 26.7058824 18.4 20.5294118 18.4 17.8823529 18.4 17.8823529 14.8zM12.5882353 29.2L3.76470588 29.2 3.76470588 25.6 9.94117647 25.6 12.5882353 25.6 12.5882353 29.2zM10.8235294 23.8L10.8235294 20.2 17 20.2 19.6470588 20.2 19.6470588 23.8 13.4705882 23.8 10.8235294 23.8zM23.1764706 29.2L14.3529412 29.2 14.3529412 25.6 20.5294118 25.6 23.1764706 25.6 23.1764706 29.2zM30.2352941 23.8L24.0588235 23.8 21.4117647 23.8 21.4117647 20.2 27.5882353 20.2 30.2352941 20.2 30.2352941 23.8zM1.28641599 18.9087996L13.7306214 12.8633176C14.0061716 12.729626 14.1907014 12.4667339 14.2184342 12.1686053 14.246167 11.8701312 14.1128363 11.5796026 13.866441 11.3999655L11.1308491 9.40633821 13.0728562 7.51945691C13.3110739 7.28834677 13.3942723 6.94599975 13.2876077 6.63578016L12.6657529 4.82317192 12.5725992 4.55129796 13.2253866 3.91704053 15.7394717 1.47432034C16.0868428 1.13715517 16.0868428.590298138 15.7394717.253132969 15.3924561-.0843776563 14.8292669-.0843776563 14.4826069.253132969L10.9271197 3.70769413C10.688902 3.93880427 10.6057036 4.28115128 10.7123682 4.59137087L11.4273767 6.67585307 9.69443225 8.35960618 6.75546648 6.21812372C6.54071505 6.06197755 6.26445369 6.0080864 6.00454758 6.07165033 5.74428591 6.13555971 5.52775674 6.3103605 5.41504779 6.54699794L.0818169122 17.7743217C-.0764022705 18.1073414-.000670392021 18.5011614.270257737 18.7564534.439854478 18.9163996.663139078 19 .888912518 19 1.02402103 19 1.1601962 18.9702908 1.28641599 18.9087996zM6.56844785 8.24076928L11.6492391 11.9430225 2.75767662 16.2629512 6.56844785 8.24076928z"/>
  </g>
</svg>
