<svg xmlns="http://www.w3.org/2000/svg" width="204" height="31" viewBox="0 0 204 31">
  <g fill="#FFF" fill-rule="evenodd" transform="translate(0 -.243)">
    <path d="M200.485972 23.4880991L201.171781 25.3374613 203.038535 25.459517C203.502917 25.490031 203.692052 26.1090279 203.333258 26.4239752L201.890394 27.6886687 202.358364 29.6137709C202.474716 30.0927307 201.979067 30.4752446 201.586444 30.2098824L200.009288 29.1418947 198.43162 30.2098824C198.038997 30.4752446 197.543861 30.0927307 197.660213 29.6137709L198.12767 27.6886687 196.684806 26.4239752C196.326012 26.1090279 196.51566 25.490031 196.97953 25.459517L198.846283 25.3374613 199.532092 23.4880991C199.702776 23.0282105 200.315288 23.0282105 200.485972 23.4880991M16.0726372 21.6684879C16.0726372 19.7559183 14.7133206 18.3108656 12.3939739 18.3108656L5.11763216 18.3108656 5.11763216 25.1111133 12.3939739 25.1111133C14.7133206 25.1111133 16.0726372 23.5816025 16.0726372 21.6684879L16.0726372 21.6684879zM5.11763216 6.62293994L5.11763216 13.3806861 11.9547075 13.3806861C14.2730291 13.3806861 15.6328583 11.8931319 15.6328583 9.98056223 15.6328583 8.10994923 14.313009 6.62293994 11.9547075 6.62293994L5.11763216 6.62293994zM21.1900643 21.9240421C21.1900643 26.8111752 17.3919739 30.2968471 12.3145266 30.2968471L.512767839 30.2968471C.229320603 30.2968471.000205025126 30.0527356.000205025126 29.7519554L.000205025126 1.93959628C.000205025126 1.6388161.229320603 1.39470464.512767839 1.39470464L11.8747477 1.39470464C16.9122151 1.39470464 20.7902653 4.83733003 20.7902653 9.72500805 20.7902653 12.4031505 19.5908683 14.4432248 17.6318533 15.7182712 19.8307477 16.9083146 21.1900643 18.9908904 21.1900643 21.9240421L21.1900643 21.9240421zM31.2643327 1.08978328L31.2643327 29.7521734C31.2643327 30.0529536 31.0347045 30.297065 30.7517698 30.297065L26.6994482 30.297065C26.416001 30.297065 26.1868854 30.0529536 26.1868854 29.7521734L26.1868854 1.08978328C26.1868854.789003096 26.416001.544891641 26.6994482.544891641L30.7517698.544891641C31.0347045.544891641 31.2643327.789003096 31.2643327 1.08978328M52.0942191 19.6709152C52.0942191 16.2282898 49.7348925 13.6356954 46.6969327 13.6356954 43.5779879 13.6356954 41.2191739 16.2282898 41.2191739 19.6709152 41.2191739 23.1135406 43.5779879 25.7066799 46.6969327 25.7066799 49.6949126 25.7066799 52.0942191 23.1135406 52.0942191 19.6709152M36.1412141 19.6709152C36.1412141 13.4656892 40.8193749 8.49246316 46.6969327 8.49246316 52.4935055 8.49246316 57.1716663 13.4656892 57.1716663 19.6709152 57.1716663 25.8766861 52.4935055 30.8493672 46.6969327 30.8493672 40.8193749 30.8493672 36.1412141 25.8766861 36.1412141 19.6709152M75.8022482 19.6709152C75.8022482 16.2282898 73.4429216 13.6356954 70.4049618 13.6356954 67.2860171 13.6356954 64.927203 16.2282898 64.927203 19.6709152 64.927203 23.1135406 67.2860171 25.7066799 70.4049618 25.7066799 73.4029417 25.7066799 75.8022482 23.1135406 75.8022482 19.6709152M59.8492432 19.6709152C59.8492432 13.4656892 64.527404 8.49246316 70.4049618 8.49246316 76.2015347 8.49246316 80.8796955 13.4656892 80.8796955 19.6709152 80.8796955 25.8766861 76.2015347 30.8493672 70.4049618 30.8493672 64.527404 30.8493672 59.8492432 25.8766861 59.8492432 19.6709152M138.003283 9.77442972L131.175947 29.9365102C131.10265 30.1528322 130.909927 30.2966836 130.693625 30.2966836L125.69665 30.2966836C125.480861 30.2966836 125.287625 30.1528322 125.214329 29.9365102L118.386992 9.77442972C118.26654 9.41916037 118.514108 9.04481981 118.868801 9.04481981L122.971354 9.04481981C123.190218 9.04481981 123.384992 9.19303034 123.456238 9.41316656L128.175404 24.0484111 132.89457 9.41316656C132.965304 9.19303034 133.160077 9.04481981 133.378942 9.04481981L137.520962 9.04481981C137.876168 9.04481981 138.123736 9.41916037 138.003283 9.77442972M168.314813 1.08978328L168.314813 29.7521734C168.314813 30.0529536 168.085185 30.297065 167.80225 30.297065L163.749929 30.297065C163.466481 30.297065 163.237366 30.0529536 163.237366 29.7521734L163.237366 1.08978328C163.237366.789003096 163.466481.544891641 163.749929.544891641L167.80225.544891641C168.085185.544891641 168.314813.789003096 168.314813 1.08978328M108.066181 8.45007059C105.108181 8.45007059 102.748854 10.2351356 101.469497 12.3607579 100.230121 9.98067121 98.1906332 8.45007059 95.6319196 8.45007059 95.5365829 8.45007059 95.4427839 8.45279505 95.3479598 8.45442972L95.3520603 8.45007059C95.0347839 8.45007059 94.7257085 8.47459071 94.4222714 8.51382291 94.3858794 8.51818204 94.3494874 8.52145139 94.3130955 8.52635542 94.272603 8.53234923 94.2326231 8.53943282 94.1926432 8.54597152 94.0506633 8.56776718 93.9102211 8.59392198 93.7718291 8.6255257 93.7554271 8.62933994 93.7395377 8.63315418 93.7236482 8.63696842 93.6211357 8.66148854 93.5196482 8.68764334 93.4191859 8.71815728 91.551407 9.24016347 90.0326834 10.4765226 89.0321608 11.933018L85.9557588 9.23525944C85.6215678 8.94210774 85.117206 9.19493746 85.117206 9.65591579L85.117206 29.7520644C85.117206 30.0528446 85.3463216 30.296956 85.6297688 30.296956L89.6021307 30.296956C89.8850653 30.296956 90.1146935 30.0528446 90.1146935 29.7520644L90.1146935 18.7784916C90.1146935 15.5478291 91.7538693 13.5077548 93.9927437 13.5077548 96.2316181 13.5077548 97.7508543 15.5478291 97.7508543 18.7784916L97.7508543 29.7520644C97.7508543 30.0528446 97.9804824 30.296956 98.2634171 30.296956L102.236291 30.296956C102.519226 30.296956 102.748854 30.0528446 102.748854 29.7520644L102.748854 18.7784916C102.748854 15.5478291 104.42801 13.5077548 106.706864 13.5077548 108.946251 13.5077548 110.425508 15.5478291 110.425508 18.7784916L110.425508 29.7520644C110.425508 30.0528446 110.654623 30.296956 110.93807 30.296956L114.910432 30.296956C115.193367 30.296956 115.422995 30.0528446 115.422995 29.7520644L115.422995 17.8854142C115.422995 12.6157672 112.50395 8.45007059 108.066181 8.45007059M152.56304 21.4135876C152.56304 24.2186898 150.164246 26.3443121 147.525573 26.3443121 145.766457 26.3443121 144.687 25.3662316 144.687 24.0911851 144.687 22.8586402 145.726477 21.9241511 147.445613 21.4985907L152.56304 20.436052 152.56304 21.4135876zM148.84491 8.49257214C145.828477 8.49257214 142.781804 10.0787517 140.849955 12.5165969 140.669533 12.7443616 140.708487 13.0881882 140.924789 13.2778105L143.639834 15.6584421C143.856136 15.8480644 144.175975 15.81973 144.354347 15.5903307 145.450206 14.1823307 147.098095 13.1252409 148.84491 13.1252409 150.763945 13.1252409 152.043302 14.4852904 152.443613 16.2709003L146.566055 17.4609437C142.528085 18.3109746 139.80894 20.5210551 139.80894 24.388696 139.80894 28.4688446 142.807945 30.8489313 146.206236 30.8489313 150.519452 30.8489313 153.208357 27.2488322 153.208357 27.2488322L156.602035 30.1912471C156.936739 30.4843988 157.441101 30.231569 157.441101 29.7705907L157.441101 17.4184421C157.441101 12.1057486 153.76295 8.49257214 148.84491 8.49257214L148.84491 8.49257214zM178.269757 17.6307319C178.749516 14.9956359 180.308732 13.3380755 182.867445 13.3380755 185.186279 13.3380755 187.225767 14.8261746 187.425154 17.6307319L178.269757 17.6307319zM192.382661 17.8857412C191.742983 11.6805152 187.744993 8.49235418 183.027365 8.49235418 177.190299 8.49235418 173.191797 13.3805771 173.191797 19.6708062 173.191797 25.9615802 177.230279 30.8492582 182.987385 30.8492582 186.263174 30.8492582 189.443114 29.1982365 191.302179 26.5669548 191.464149 26.3381003 191.418018 26.0111653 191.209918 25.8286266L188.514862 23.4659765C188.285747 23.2649115 187.945405 23.3128619 187.775234 23.5716854 186.810078 25.0379889 185.084792 26.0040817 183.067345 26.0040817 180.508631 26.0040817 178.829475 24.474026 178.269757 21.7964285L191.879325 21.7964285C192.142782 21.7964285 192.367797 21.5817412 192.391887 21.3027567 192.501063 20.0500508 192.489274 18.9014192 192.382661 17.8857412L192.382661 17.8857412z"/>
  </g>
</svg>
